<svg width="29" height="22" viewBox="0 0 29 22" fill="none" xmlns="http://www.w3.org/2000/svg">
<path d="M26.4584 9.50005H6.19754L12.3988 2.96005C12.6888 2.65372 12.8283 2.2588 12.7866 1.86216C12.745 1.46552 12.5256 1.09966 12.1767 0.845047C11.8278 0.590439 11.3781 0.467947 10.9263 0.504516C10.4746 0.541086 10.0579 0.733722 9.76796 1.04005L1.22629 10.04C1.16882 10.1116 1.11743 10.1868 1.07254 10.265C1.07254 10.34 1.07254 10.385 0.952958 10.46C0.875525 10.632 0.834982 10.8151 0.833374 11C0.834982 11.185 0.875525 11.3681 0.952958 11.54C0.952958 11.615 0.952957 11.66 1.07254 11.735C1.11743 11.8133 1.16882 11.8885 1.22629 11.96L9.76796 20.96C9.92858 21.1294 10.1297 21.2655 10.3571 21.3589C10.5844 21.4522 10.8324 21.5004 11.0834 21.5C11.4825 21.5007 11.8694 21.3787 12.1767 21.155C12.3497 21.0291 12.4927 20.8745 12.5975 20.7C12.7023 20.5254 12.7669 20.3345 12.7875 20.138C12.8081 19.9415 12.7844 19.7434 12.7177 19.555C12.651 19.3666 12.5426 19.1916 12.3988 19.04L6.19754 12.5H26.4584C26.9114 12.5 27.346 12.342 27.6663 12.0607C27.9867 11.7794 28.1667 11.3979 28.1667 11C28.1667 10.6022 27.9867 10.2207 27.6663 9.93939C27.346 9.65808 26.9114 9.50005 26.4584 9.50005Z" fill="#030303"/>
</svg>
