<?xml version="1.0" encoding="UTF-8" standalone="no"?>
<!-- Created with Inkscape (http://www.inkscape.org/) -->

<svg
   width="5.2916827mm"
   height="6.4988284mm"
   viewBox="0 0 5.2916827 6.4988284"
   version="1.1"
   id="svg1"
   xml:space="preserve"
   xmlns:inkscape="http://www.inkscape.org/namespaces/inkscape"
   xmlns:sodipodi="http://sodipodi.sourceforge.net/DTD/sodipodi-0.dtd"
   xmlns="http://www.w3.org/2000/svg"
   xmlns:svg="http://www.w3.org/2000/svg"><sodipodi:namedview
     id="namedview1"
     pagecolor="#ffffff"
     bordercolor="#000000"
     borderopacity="0.25"
     inkscape:showpageshadow="2"
     inkscape:pageopacity="0.0"
     inkscape:pagecheckerboard="0"
     inkscape:deskcolor="#d1d1d1"
     inkscape:document-units="mm" /><defs
     id="defs1" /><g
     inkscape:label="Camada 1"
     inkscape:groupmode="layer"
     id="layer1"
     transform="translate(-102.38183,-145.25059)"><g
       style="fill:#000000"
       id="g1"
       transform="matrix(0.26458333,0,0,0.26458333,102.3819,145.25058)"><path
         d="m 16.7031,13.0492 c 0.0346,3.7172 3.261,4.9542 3.2967,4.9699 -0.0274,0.0872 -0.5156,1.7628 -1.6998,3.4935 -1.0237,1.4963 -2.0863,2.9871 -3.7601,3.0179 -1.6446,0.0304 -2.1735,-0.9752 -4.0538,-0.9752 -1.87976,0 -2.46734,0.9444 -4.02421,1.0056 C 4.84626,24.622 3.61595,22.9429 2.58376,21.452 0.474386,18.4026 -1.13757,12.8348 1.02689,9.07656 2.10212,7.21016 4.02376,6.02836 6.10939,5.99805 7.69587,5.96781 9.19337,7.06539 10.1632,7.06539 c 0.9692,0 2.789,-1.31992 4.702,-1.12609 0.8008,0.03336 3.049,0.32343 4.4925,2.4364 -0.1164,0.07211 -2.6825,1.56594 -2.6546,4.6736 z M 13.6123,3.9218 C 14.4701,2.88352 15.0474,1.4382 14.8899,0 13.6534,0.0496875 12.1584,0.823906 11.2716,1.86156 10.4768,2.78055 9.78079,4.25133 9.9686,5.66102 11.3467,5.76766 12.7545,4.9607 13.6124,3.9218"
         fill="#ffffff"
         id="path1"
         style="fill:#000000" /></g></g></svg>
