<svg width="15" height="14" viewBox="0 0 15 14" fill="none" xmlns="http://www.w3.org/2000/svg">
<path d="M13.398 1.1481C13.0338 0.78393 12.6014 0.495095 12.1256 0.298099C11.6498 0.101103 11.1397 -0.000193115 10.6247 2.76391e-07C10.1097 0.000193668 9.59981 0.101872 9.12411 0.299226C8.64841 0.496579 8.21627 0.785739 7.85237 1.15018L7.37737 1.63097L6.90631 1.15122L6.90325 1.14816C6.53925 0.784162 6.10713 0.495424 5.63155 0.298431C5.15597 0.101438 4.64624 4.66543e-05 4.13148 4.66543e-05C3.61671 4.66543e-05 3.10699 0.101438 2.6314 0.298431C2.15582 0.495424 1.7237 0.784162 1.35971 1.14816L1.1481 1.35977C0.412982 2.09488 0 3.09191 0 4.13152C0 5.17113 0.412982 6.16816 1.1481 6.90328L6.73307 12.4882L7.36377 13.149L7.37881 13.1339L7.39513 13.1503L7.98605 12.5268L13.6096 6.90319C14.3436 6.16749 14.7558 5.17068 14.7558 4.13143C14.7558 3.09219 14.3436 2.09538 13.6096 1.35968L13.398 1.1481ZM12.9165 6.21026L7.37881 11.7481L1.84099 6.21026C1.28966 5.65892 0.979924 4.91115 0.979924 4.13145C0.979924 3.35174 1.28966 2.60397 1.84099 2.05263L2.05263 1.84102C2.6037 1.28996 3.35102 0.980248 4.13034 0.979955C4.90966 0.979663 5.65722 1.28881 6.2087 1.83946L7.37525 3.02727L8.54735 1.84102C8.82035 1.56803 9.14444 1.35147 9.50113 1.20373C9.85781 1.05598 10.2401 0.97994 10.6262 0.97994C11.0123 0.97994 11.3946 1.05598 11.7512 1.20373C12.1079 1.35147 12.432 1.56803 12.705 1.84102L12.9166 2.0526C13.4671 2.60439 13.7763 3.35202 13.7762 4.13146C13.7762 4.9109 13.467 5.6585 12.9165 6.21026Z" fill="#FAFBFA"/>
</svg>
