<?xml version="1.0" encoding="UTF-8" standalone="no"?>
<!-- Created with Inkscape (http://www.inkscape.org/) -->

<svg
   width="48.000168"
   height="48.262466"
   viewBox="0 0 48.000168 48.262466"
   version="1.1"
   id="svg1"
   xml:space="preserve"
   xmlns:inkscape="http://www.inkscape.org/namespaces/inkscape"
   xmlns:sodipodi="http://sodipodi.sourceforge.net/DTD/sodipodi-0.dtd"
   xmlns="http://www.w3.org/2000/svg"
   xmlns:svg="http://www.w3.org/2000/svg"><sodipodi:namedview
     id="namedview1"
     pagecolor="#ffffff"
     bordercolor="#000000"
     borderopacity="0.25"
     inkscape:showpageshadow="2"
     inkscape:pageopacity="0.0"
     inkscape:pagecheckerboard="0"
     inkscape:deskcolor="#d1d1d1"
     inkscape:document-units="px" /><defs
     id="defs1" /><g
     inkscape:label="Camada 1"
     inkscape:groupmode="layer"
     id="layer1"
     transform="translate(8.2566999e-5,0.13123409)"><path
       style="fill:#000000;stroke-width:0.0556005"
       d="m 22.016439,48.119491 c -6.82367,-0.53854 -12.7840097,-3.76796 -17.0214897,-9.22254 -2.37383,-3.05566 -4.04131005,-6.9062 -4.68445001,-10.81738 -0.26745,-1.62645 -0.31196,-2.21165 -0.310549999567,-4.08355 C 0.00194929,21.573011 0.16864929,20.180881 0.72642925,17.935571 c 0.19625,-0.79 0.75145005,-2.50667 0.96655005,-2.98852 l 0.11789,-0.26411 h 1.43655 1.43656 l -0.33275,0.76451 c -2.22408,5.10991 -2.33902,11.18305 -0.31019,16.38824 2.64764,6.79277 8.5079397,11.78362 15.4733797,13.17769 5.41155,1.08308 10.95863,-0.005 15.55177,-3.05112 l 0.63982,-0.42429 2.07909,0.002 2.07909,0.002 -0.35735,0.33952 c -0.19653,0.18674 -0.66282,0.59307 -1.03619,0.90296 -2.97641,2.47039 -6.54366,4.17798 -10.28256,4.92213 -1.63932,0.32627 -2.40686,0.40245 -4.22563,0.41942 -0.91741,0.009 -1.79312,0.006 -1.94602,-0.006 z m -1.36221,-8.63352 v -1.9964 l -0.2919,-0.0366 c -2.23874,-0.28089 -4.39534,-0.90263 -6.12996,-1.76724 -0.6445,-0.32125 -1.97381,-1.08665 -1.97381,-1.1365 0,-0.0134 0.45802,-0.65446 1.01783,-1.42456 0.55981,-0.77009 1.27565,-1.75777 1.59076,-2.19484 0.54849,-0.76078 0.578,-0.79137 0.69188,-0.7172 2.00723,1.30721 3.63192,1.92042 5.8736,2.21688 0.70614,0.0934 2.95615,0.0933 3.53063,-1.1e-4 2.29762,-0.37362 3.64743,-1.41981 3.51296,-2.72275 -0.10733,-1.03987 -1.37918,-2.06487 -3.69704,-2.9795 -0.28473,-0.11235 -0.99781,-0.36798 -1.58462,-0.56806 -4.338,-1.47909 -7.16594,-3.10717 -8.55002,-4.92233 -0.77394,-1.01499 -1.10423,-1.93625 -1.10621,-3.08538 -0.005,-3.12156 2.35581,-5.65973 6.39949,-6.87922 0.34815,-0.10499 0.77687,-0.22267 0.95271,-0.26151 l 0.3197,-0.0706 v -2.1595695 -2.15957 h 3.24668 c 2.9914,0 3.2495,0.007 3.28258,0.0936 0.0197,0.0515 0.0328,0.99175 0.029,2.08953 -0.004,1.0977696 0.001,2.0032595 0.0118,2.0121795 0.0103,0.009 0.25635,0.0586 0.54686,0.11041 1.34732,0.24025 2.97674,0.68406 4.27651,1.16481 1.15877,0.4286 2.5688,1.04895 2.54214,1.11844 -0.0229,0.0598 -2.94102,3.78552 -3.37977,4.31522 l -0.18625,0.22485 -0.69501,-0.45331 c -0.80862,-0.52741 -1.29502,-0.76861 -2.07678,-1.02982 -1.56685,-0.52355 -4.20341,-0.72489 -5.78728,-0.44196 -1.20869,0.21592 -2.21579,0.73826 -2.56182,1.32871 -0.20382,0.34781 -0.24185,0.77573 -0.0946,1.06441 0.44745,0.87707 2.46893,2.00845 5.37318,3.00724 6.13999,2.11159 8.69072,4.04737 9.35114,7.09668 0.13716,0.63333 0.16217,1.69643 0.0544,2.31364 -0.2324,1.33124 -0.77823,2.34744 -1.86534,3.47282 -1.37763,1.42613 -3.17461,2.42086 -5.44181,3.01233 -0.28547,0.0745 -0.54193,0.14956 -0.5699,0.16685 -0.0293,0.0181 -0.0509,0.91482 -0.0509,2.11316 v 2.08174 h -3.28042 -3.28043 z m 17.49547,-0.7744 c -0.17321,-0.17504 -0.31493,-0.33281 -0.31493,-0.3506 0,-0.0178 0.15638,-0.13364 0.3475,-0.25743 0.54904,-0.35563 1.16227,-0.90875 1.47455,-1.33 0.33501,-0.45189 0.66104,-1.11331 0.71258,-1.44558 l 0.0361,-0.23297 -0.30587,0.0316 c -0.75604,0.078 -1.57406,-0.34922 -1.97345,-1.03073 -0.11668,-0.1991 -0.15034,-0.34041 -0.16991,-0.71332 -0.0228,-0.43494 -0.013,-0.48825 0.1522,-0.82378 0.20194,-0.41021 0.48363,-0.66924 0.98116,-0.90223 0.29589,-0.13858 0.3896,-0.15425 0.91352,-0.15282 0.51389,0.001 0.62221,0.0194 0.90452,0.15029 0.44345,0.20559 0.881,0.65513 1.03294,1.06123 0.14547,0.38879 0.15694,0.94055 0.0355,1.70591 -0.15269,0.9621 -0.49133,1.80641 -1.00298,2.50061 -0.57095,0.77467 -1.71619,1.77703 -2.31726,2.02817 l -0.19127,0.0799 z m 5.89534,-0.0539 -0.3193,-0.32267 0.46479,-0.31571 c 0.60655,-0.41201 1.149,-0.9131 1.45944,-1.34815 0.29412,-0.41217 0.61804,-1.08936 0.66697,-1.39439 l 0.0347,-0.21625 -0.36833,0.0187 c -0.97035,0.0494 -1.85,-0.57091 -2.06916,-1.45901 -0.083,-0.33648 -0.0832,-0.39626 -0.002,-0.72472 0.10928,-0.44287 0.31091,-0.75499 0.64717,-1.00182 0.99576,-0.73096 2.41444,-0.56596 3.08671,0.359 0.30194,0.41544 0.38518,0.76052 0.34437,1.42762 -0.0627,1.02545 -0.31911,1.93944 -0.76027,2.71048 -0.40478,0.70746 -1.34303,1.70399 -2.05594,2.18361 -0.27283,0.18356 -0.69139,0.40595 -0.76403,0.40595 -0.0251,0 -0.18934,-0.1452 -0.36495,-0.32267 z m -0.0736,-9.26966 c 0.0801,-0.2086 0.4282,-2.07425 0.51856,-2.77878 0.12571,-0.98026 0.14233,-4.05775 0.0269,-4.97624 -0.3419,-2.71975 -1.03963,-5.0694 -2.17938,-7.33926 -1.66433,-3.31456 -4.14881,-6.1249695 -7.26359,-8.2164795 -2.60753,-1.7509 -5.67482,-2.89343 -8.943,-3.33116 -1.05533,-0.14135 -3.98253,-0.14086 -5.03184,9e-4 -2.43197,0.32843 -4.42566,0.92631 -6.53305,1.95918 -0.51987,0.25479 -1.07657,0.54171 -1.23711,0.63759 l -0.29191,0.17433 v -1.44651 -1.44651 l -0.1529,-0.0185 c -0.1477,-0.0179 -0.1444,-0.0231 0.0973,-0.15416 1.24962,-0.67733 3.20163,-1.43192 4.72604,-1.82694 5.53146,-1.43337001 11.32331,-0.81786001 16.37155,1.73983 2.8943,1.4664 5.39572,3.45742 7.51207,5.97927 4.69899,5.5993495 6.6219,13.1037695 5.21846,20.3658195 l -0.14733,0.76236 h -1.36161 c -1.19637,0 -1.35767,-0.0103 -1.32913,-0.0847 z M 2.9892093,12.714931 c -0.77583,-0.25264 -1.29611,-0.85948 -1.38495,-1.61537 -0.0741,-0.63054 0.15131,-1.8748599 0.48471,-2.6757395 0.33155,-0.79642 1.07572,-1.73571 1.9225,-2.42657 0.37342,-0.30467 1.04706,-0.7108 1.17899,-0.7108 0.10879,0 0.70116,0.60745 0.64285,0.65923 -0.0287,0.0255 -0.25234,0.1814 -0.49698,0.34647 -0.55232,0.37268 -1.32896,1.1436 -1.57653,1.56491 -0.20403,0.34722 -0.42145,0.86239 -0.47753,1.1314596 l -0.0357,0.17143 0.40548,10e-4 c 0.66343,0.002 1.07665,0.16708 1.564,0.62353 0.35735,0.3346899 0.50125,0.6798099 0.50061,1.2005899 -7e-4,0.55126 -0.13096,0.85457 -0.52563,1.22375 -0.42711,0.39951 -0.80349,0.54762 -1.43929,0.56638 -0.33757,0.01 -0.61277,-0.0119 -0.76251,-0.0607 z m 6.02979,0.0171 c -0.52541,-0.12378 -1.11786,-0.61019 -1.33151,-1.09317 -0.14899,-0.33681 -0.18535,-0.86293 -0.103,-1.49026 0.18961,-1.4444895 0.63954,-2.4073195 1.59399,-3.4111295 0.62348,-0.65572 1.0725397,-1.02489 1.5973797,-1.31318 l 0.37989,-0.20867 0.32902,0.32558 c 0.18096,0.17908 0.32901,0.34077 0.32901,0.35933 0,0.0186 -0.18874,0.15329 -0.41942,0.29943 -1.06585,0.67519 -1.9965397,1.86042 -2.1644797,2.7564696 l -0.0364,0.19427 0.46225,0.005 c 0.6141097,0.006 0.9982797,0.15556 1.4300797,0.55533 0.42154,0.3902699 0.57782,0.7366199 0.57892,1.2829799 6e-4,0.32089 -0.0284,0.45712 -0.15059,0.70692 -0.3993,0.81613 -1.49179,1.26768 -2.4951297,1.0313 z"
       id="path1" /></g></svg>
